<svg xmlns="http://www.w3.org/2000/svg" viewBox="0 0 512 512">
  <defs>
    <linearGradient id="aurora" x1="0%" y1="0%" x2="100%" y2="100%">
      <stop offset="0%" style="stop-color:#4facfe;stop-opacity:1" />
      <stop offset="50%" style="stop-color:#00f2fe;stop-opacity:1" />
      <stop offset="100%" style="stop-color:#a8edea;stop-opacity:1" />
    </linearGradient>
  </defs>
  <path d="M73.6 230.8c-17-7.6-32.9-1.8-37.4 6.7-27.1 51.5 83.1 82.2 163.6 82.2 46.3 0 92.5-10.1 129.8-27.9 44.4-21.2 60.3-43.8 55.4-55.8-9.2-22.3-64.8-19.1-135.5 1.5-35.3 10.3-69.6 19.3-99.3 19.3-51.5 0-82.7-26.1-76.6-26.1z" fill="url(#aurora)" opacity="0.6"/>
  <path d="M438.4 286.2c17 7.6 32.9 1.8 37.4-6.7 27.1-51.5-83.1-82.2-163.6-82.2-46.3 0-92.5 10.1-129.8 27.9-44.4 21.2-60.3 43.8-55.4 55.8 9.2 22.3 64.8 19.1 135.5-1.5 35.3-10.3 69.6-19.3 99.3-19.3 51.5 0 82.7 26.1 76.6 26.1z" fill="url(#aurora)" opacity="0.8"/>
  <path d="M256 0c-141.4 0-256 114.6-256 256s114.6 256 256 256 256-114.6 256-256-114.6-256-256-256zm0 464c-114.9 0-208-93.1-208-208s93.1-208 208-208 208 93.1 208 208-93.1 208-208 208z" fill="url(#aurora)"/>
  <circle cx="256" cy="256" r="200" fill="#ffffff" fill-opacity="0.1"/>
</svg>
